<?xml version="1.0" encoding="utf-8"?>
<!-- Generator: Adobe Illustrator 17.0.0, SVG Export Plug-In . SVG Version: 6.00 Build 0)  -->
<!DOCTYPE svg PUBLIC "-//W3C//DTD SVG 1.1//EN" "http://www.w3.org/Graphics/SVG/1.1/DTD/svg11.dtd">
<svg version="1.1" id="Capa_1" xmlns="http://www.w3.org/2000/svg" xmlns:xlink="http://www.w3.org/1999/xlink" x="0px" y="0px"
	 width="16px" height="16px" viewBox="0 0 16 16" enable-background="new 0 0 16 16" xml:space="preserve">
<g>
	<g>
		<g>
			<g>
				<path fill="#FFFFFF" d="M4.402,4.576h8.238V3.957c0-0.511-0.348-0.929-0.772-0.929h-3.4V2.487c0-0.77-0.52-1.393-1.158-1.393
					H5.331c-0.309,0-0.599,0.145-0.819,0.41s-0.34,0.611-0.34,0.984v0.542h-3.4C0.347,3.028,0,3.446,0,3.957v8.297l2.597-6.328
					C2.912,5.156,3.689,4.576,4.402,4.576z M4.945,2.487c0-0.123,0.042-0.24,0.114-0.327c0.072-0.089,0.17-0.138,0.272-0.138h1.977
					c0.214,0,0.386,0.208,0.386,0.465v0.542H4.945L4.945,2.487L4.945,2.487z"/>
				<path fill="#FFFFFF" d="M15.497,5.504H4.402c-0.424,0-0.926,0.375-1.112,0.832l-2.984,7.271
					c-0.188,0.457,0.006,0.832,0.43,0.832h11.095c0.424,0,0.927-0.374,1.114-0.832l2.983-7.271
					C16.116,5.879,15.923,5.504,15.497,5.504z"/>
			</g>
		</g>
		<g>
		</g>
		<g>
		</g>
		<g>
		</g>
		<g>
		</g>
		<g>
		</g>
		<g>
		</g>
		<g>
		</g>
		<g>
		</g>
		<g>
		</g>
		<g>
		</g>
		<g>
		</g>
		<g>
		</g>
		<g>
		</g>
		<g>
		</g>
		<g>
		</g>
	</g>
	<g>
	</g>
	<g>
	</g>
	<g>
	</g>
	<g>
	</g>
	<g>
	</g>
	<g>
	</g>
	<g>
	</g>
	<g>
	</g>
	<g>
	</g>
	<g>
	</g>
	<g>
	</g>
	<g>
	</g>
	<g>
	</g>
	<g>
	</g>
	<g>
	</g>
</g>
</svg>
